Coordinates
version=1
nRows=24
nColumns=24
inDegrees=yes

Units are S.I. units (second, meters, Newtons, ...)
Angles are in degrees.

endheader
time	pelvis_tilt	pelvis_list	pelvis_rotation	pelvis_tx	pelvis_ty	pelvis_tz	hip_flexion_r	hip_adduction_r	hip_rotation_r	knee_angle_r	ankle_angle_r	subtalar_angle_r	mtp_angle_r	hip_flexion_l	hip_adduction_l	hip_rotation_l	knee_angle_l	ankle_angle_l	subtalar_angle_l	mtp_angle_l	lumbar_extension	lumbar_bending	lumbar_rotation
      3.63500000	    -10.59134258	      4.15836240	     -2.73323622	     -2.26000569	     -0.01742347	     -0.71990140	     18.33855325	     -8.04978950	     -4.19633486	    -61.23903933	    -12.80830170	    -19.26494402	     -3.41258741	     26.71770337	      4.98909422	    -13.34119625	    -23.37479417	      2.76144692	     -9.19223510	      3.74997234	      6.45757226	     -5.20644530	      1.53508028
      3.64000000	    -10.63961850	      4.06109364	     -2.62923283	     -2.25510446	     -0.01666073	     -0.72086819	     19.18731188	     -8.00672241	     -4.31787055	    -61.99888311	    -12.54878178	    -19.67882808	     -3.42304255	     26.27021111	      5.06653030	    -13.13508520	    -23.06451486	      2.92553288	     -9.20997082	      3.78346454	      6.46025545	     -5.08811246	      1.28547756
      3.64500000	    -10.72774333	      3.98259765	     -2.56800239	     -2.25027457	     -0.01596047	     -0.72175584	     20.09641779	     -7.95014935	     -4.34375686	    -62.71397417	    -12.18068425	    -19.86720746	     -3.37064557	     25.86643452	      5.13396502	    -12.98838900	    -22.74756460	      3.09062822	     -9.20502737	      3.77911098	      6.50495423	     -4.98071793	      1.09303410
      3.65000000	    -10.73522789	      3.89154092	     -2.52619372	     -2.24546238	     -0.01512165	     -0.72255199	     20.89383466	     -7.85561050	     -4.34621435	    -63.31770624	    -11.83129634	    -20.03603763	     -3.27359949	     25.35399013	      5.18014248	    -12.83557517	    -22.39774163	      3.24406553	     -9.14723065	      3.77558271	      6.46129082	     -4.86743026	      0.89878288
      3.65500000	    -10.88119817	      3.84688743	     -2.45397777	     -2.24066719	     -0.01453132	     -0.72344498	     21.85380403	     -7.83305942	     -4.36888832	    -63.89962458	    -11.39012813	    -20.04540406	     -3.00677329	     25.01069756	      5.27870515	    -12.74962142	    -22.06098646	      3.39149537	     -9.16309146	      3.67070089	      6.57635123	     -4.79110740	      0.68435164
      3.66000000	    -10.94871510	      3.79651395	     -2.38806158	     -2.23583701	     -0.01381624	     -0.72428962	     22.69554697	     -7.79386015	     -4.38986125	    -64.36293612	    -11.00864227	    -20.07573895	     -2.59350889	     24.55112950	      5.37719104	    -12.61810293	    -21.67952682	      3.54939616	     -9.13290528	      3.52855258	      6.61398381	     -4.71203205	      0.48545718
      3.66500000	    -10.93968551	      3.71739506	     -2.34044678	     -2.23097831	     -0.01297050	     -0.72504049	     23.42506571	     -7.70273438	     -4.42656877	    -64.71699109	    -10.68277240	    -20.18470016	     -2.38386611	     23.97980463	      5.43678080	    -12.46693643	    -21.25685785	      3.70877172	     -9.04271161	      3.50857516	      6.57636276	     -4.60964275	      0.32848287
      3.67000000	    -10.99724777	      3.71276062	     -2.27141478	     -2.22613356	     -0.01226639	     -0.72599172	     24.21463118	     -7.72467056	     -4.41105944	    -64.96306993	    -10.48042297	    -20.25075206	     -0.59197323	     23.48387913	      5.60693132	    -12.33402903	    -20.81870621	      3.84759928	     -9.12319775	      3.00791123	      6.61321964	     -4.56290346	      0.13651457
      3.67500000	    -10.96939239	      3.64760543	     -2.17496155	     -2.22127037	     -0.01146582	     -0.72678584	     24.87553781	     -7.66763427	     -4.48643790	    -65.16737822	    -10.03216170	    -20.16245413	     -0.27475542	     22.89117337	      5.68701048	    -12.23944185	    -20.38982668	      4.04319316	     -8.94753054	      3.02499637	      6.55664561	     -4.48168446	     -0.09603377
      3.68000000	    -10.90310075	      3.60726766	     -2.14848625	     -2.21638120	     -0.01058530	     -0.72755055	     25.47568730	     -7.59994208	     -4.44214284	    -65.23539641	     -9.69850192	    -20.09974517	      0.93892730	     22.21785641	      5.79316212	    -12.11739064	    -19.88115993	      4.12062021	     -8.97431001	      2.88337958	      6.47181164	     -4.40622417	     -0.23472118
      3.68500000	    -10.88654377	      3.58122700	     -2.03462993	     -2.21147408	     -0.00983362	     -0.72835580	     26.12008681	     -7.59843948	     -4.55932287	    -65.29546485	     -9.29752956	    -20.06019191	      1.25218692	     21.61832639	      5.91582473	    -12.04911151	    -19.41076865	      4.27966309	     -8.79203318	      2.90832640	      6.44346625	     -4.36727522	     -0.49500728
      3.69000000	    -10.74232666	      3.53569989	     -2.00923306	     -2.20652415	     -0.00886389	     -0.72911238	     26.57489138	     -7.52238190	     -4.52532160	    -65.17184782	     -8.97948384	    -19.98391184	      2.61914499	     20.83172724	      6.01726140	    -11.94193110	    -18.85225869	      4.32043155	     -8.80703233	      2.83231447	      6.28734157	     -4.28445683	     -0.64173902
      3.69500000	    -10.73520129	      3.50485538	     -1.88326634	     -2.20160085	     -0.00815763	     -0.72990453	     27.18443395	     -7.51392287	     -4.65706558	    -65.07765212	     -8.54849581	    -19.89314558	      2.88973711	     20.23542363	      6.13077803	    -11.86502021	    -18.37089389	      4.47586287	     -8.59748884	      2.87358798	      6.27555537	     -4.23928686	     -0.90473606
      3.70000000	    -10.54696915	      3.44713738	     -1.84381874	     -2.19661184	     -0.00717148	     -0.73064037	     27.53767503	     -7.43113004	     -4.67363651	    -64.80135678	     -8.17284457	    -19.78464302	      3.88682543	     19.39229459	      6.21257777	    -11.79007971	    -17.80025227	      4.51953099	     -8.54715829	      2.88291274	      6.07951413	     -4.14774141	     -1.07726250
      3.70500000	    -10.46452280	      3.39700918	     -1.74545508	     -2.19164496	     -0.00638949	     -0.73141396	     27.99839974	     -7.38803452	     -4.77617052	    -64.50168212	     -7.75089339	    -19.68113518	      4.51804025	     18.69339380	      6.30006482	    -11.71924595	    -17.28353202	      4.62428389	     -8.38504109	      2.94584111	      5.99527775	     -4.07261068	     -1.30723240
      3.71000000	    -10.42277028	      3.36068541	     -1.64060680	     -2.18669478	     -0.00569987	     -0.73219130	     28.50183192	     -7.36142532	     -4.89398763	    -64.16876283	     -7.30857834	    -19.55953523	      4.71400559	     18.04246461	      6.39868656	    -11.63713352	    -16.77223982	      4.74624913	     -8.19466774	      2.98747301	      5.95479334	     -4.00636295	     -1.54053129
      3.71500000	    -10.29014514	      3.30117248	     -1.56510130	     -2.18169616	     -0.00491707	     -0.73292470	     28.86278686	     -7.30251120	     -5.00589464	    -63.72819362	     -6.82348489	    -19.38331048	      4.96781551	     17.27702207	      6.46664455	    -11.57752076	    -16.23854680	      4.85318318	     -8.03804334	      3.03121435	      5.82595921	     -3.92023383	     -1.76085600
      3.72000000	    -10.13650611	      3.23939702	     -1.49202572	     -2.17671085	     -0.00411685	     -0.73365482	     29.17178872	     -7.23585580	     -5.12184565	    -63.19419727	     -6.38625188	    -19.30200340	      5.22002438	     16.49022780	      6.52820387	    -11.54302551	    -15.70110816	      4.91667333	     -7.88351121	      3.08163161	      5.67047239	     -3.82414775	     -1.98564419
      3.72500000	    -10.01939754	      3.18085122	     -1.41596132	     -2.17174263	     -0.00342498	     -0.73438285	     29.50764767	     -7.17603510	     -5.25329195	    -62.60369845	     -5.96960344	    -19.25712737	      5.40684297	     15.74886474	      6.58967478	    -11.48273880	    -15.17537410	      5.01243480	     -7.71138088	      3.14866060	      5.55433681	     -3.73047403	     -2.19683441
      3.73000000	     -9.93247133	      3.12984375	     -1.34034365	     -2.16680175	     -0.00283622	     -0.73510156	     29.86523946	     -7.12509024	     -5.39465911	    -61.95866863	     -5.57522985	    -19.24969682	      5.51103270	     15.04623321	      6.65554382	    -11.39881270	    -14.65992569	      5.13586215	     -7.53092612	      3.21363092	      5.46876572	     -3.64381305	     -2.39011431
      3.73500000	     -9.80776782	      3.05278397	     -1.25363026	     -2.16186418	     -0.00219705	     -0.73581159	     30.13292858	     -7.04862869	     -5.56121961	    -61.20656543	     -5.19780394	    -19.27110741	      5.56936347	     14.31221064	      6.68906017	    -11.36917725	    -14.15655171	      5.21342351	     -7.34476343	      3.27994710	      5.33846600	     -3.52954744	     -2.63394243
      3.74000000	     -9.73290405	      2.99366269	     -1.16385755	     -2.15695966	     -0.00170433	     -0.73651544	     30.44942080	     -6.99611917	     -5.74017770	    -60.41146975	     -4.85939212	    -19.33876101	      5.55645573	     13.63893786	      6.73920627	    -11.28618711	    -13.66607513	      5.33698290	     -7.14687530	      3.35340201	      5.26099518	     -3.43387103	     -2.85001851
      3.74500000	     -9.65952970	      2.92174217	     -1.06390121	     -2.15208070	     -0.00124038	     -0.73720702	     30.73452196	     -6.93185641	     -5.94079084	    -59.53441336	     -4.55197523	    -19.44249728	      5.46861274	     12.98053332	      6.77112265	    -11.23052350	    -13.19368924	      5.43825478	     -6.94857545	      3.42180546	      5.17781575	     -3.32735985	     -3.09140895
      3.75000000	     -9.59067688	      2.85156627	     -0.96262912	     -2.14723183	     -0.00083021	     -0.73789533	     30.99934165	     -6.87093935	     -6.15539613	    -58.58580274	     -4.27156068	    -19.58171985	      5.26804822	     12.34129801	      6.80031312	    -11.20234953	    -12.74038662	      5.53493650	     -6.75291382	      3.50355846	      5.09597510	     -3.21764646	     -3.34067525
